<svg xmlns="http://www.w3.org/2000/svg" width="720" height="462" viewBox="0 0 720 462">
  <rect width="720" height="462" fill="#0B0D12"/>
  <rect x="36" y="36" width="154" height="72" rx="8" fill="#141720" stroke="#2a2d38" stroke-width="0.5"/>
  <text x="50" y="56" font-family="sans-serif" font-size="11" font-weight="400" fill="#8a8fa0" text-anchor="start">V1 baseline</text>
  <text x="50" y="82" font-family="sans-serif" font-size="22" font-weight="500" fill="#e2e0d8" text-anchor="start">42 ms</text>
  <text x="50" y="98" font-family="sans-serif" font-size="11" font-weight="400" fill="#555a6a" text-anchor="start">intuitive AoS</text>
  <rect x="200" y="36" width="154" height="72" rx="8" fill="#141720" stroke="#2a2d38" stroke-width="0.5"/>
  <text x="214" y="56" font-family="sans-serif" font-size="11" font-weight="400" fill="#8a8fa0" text-anchor="start">V2  SoA layout</text>
  <text x="214" y="82" font-family="sans-serif" font-size="22" font-weight="500" fill="#e2e0d8" text-anchor="start">29.4 ms</text>
  <text x="214" y="98" font-family="sans-serif" font-size="11" font-weight="400" fill="#555a6a" text-anchor="start">cache bandwidth</text>
  <rect x="364" y="36" width="154" height="72" rx="8" fill="#141720" stroke="#2a2d38" stroke-width="0.5"/>
  <text x="378" y="56" font-family="sans-serif" font-size="11" font-weight="400" fill="#8a8fa0" text-anchor="start">V3  pre-alloc</text>
  <text x="378" y="82" font-family="sans-serif" font-size="22" font-weight="500" fill="#e2e0d8" text-anchor="start">29.3 ms</text>
  <text x="378" y="98" font-family="sans-serif" font-size="11" font-weight="400" fill="#555a6a" text-anchor="start">no heap on hot path</text>
  <rect x="528" y="36" width="154" height="72" rx="8" fill="#141720" stroke="#2a2d38" stroke-width="0.5"/>
  <text x="542" y="56" font-family="sans-serif" font-size="11" font-weight="400" fill="#8a8fa0" text-anchor="start">Memory gains total</text>
  <text x="542" y="82" font-family="sans-serif" font-size="22" font-weight="500" fill="#e2e0d8" text-anchor="start">+1.4×</text>
  <text x="542" y="98" font-family="sans-serif" font-size="11" font-weight="400" fill="#555a6a" text-anchor="start">V1 → V3</text>
  <text x="36" y="140" font-family="sans-serif" font-size="11" font-weight="500" fill="#8a8fa0" text-anchor="start">Speedup relative to V1  (log scale)</text>
  <line x1="74.0" y1="158" x2="74.0" y2="246" stroke="#2a2d38" stroke-width="0.5"/>
  <text x="74.0" y="258" font-family="sans-serif" font-size="11" font-weight="400" fill="#555a6a" text-anchor="middle">1×</text>
  <line x1="175.7" y1="158" x2="175.7" y2="246" stroke="#2a2d38" stroke-width="0.5"/>
  <text x="175.7" y="258" font-family="sans-serif" font-size="11" font-weight="400" fill="#555a6a" text-anchor="middle">2×</text>
  <line x1="310.1" y1="158" x2="310.1" y2="246" stroke="#2a2d38" stroke-width="0.5"/>
  <text x="310.1" y="258" font-family="sans-serif" font-size="11" font-weight="400" fill="#555a6a" text-anchor="middle">5×</text>
  <line x1="411.9" y1="158" x2="411.9" y2="246" stroke="#2a2d38" stroke-width="0.5"/>
  <text x="411.9" y="258" font-family="sans-serif" font-size="11" font-weight="400" fill="#555a6a" text-anchor="middle">10×</text>
  <line x1="573.0" y1="158" x2="573.0" y2="246" stroke="#2a2d38" stroke-width="0.5"/>
  <text x="573.0" y="258" font-family="sans-serif" font-size="11" font-weight="400" fill="#555a6a" text-anchor="middle">30×</text>
  <text x="68" y="176" font-family="sans-serif" font-size="11" font-weight="400" fill="#8a8fa0" text-anchor="end">V1</text>
  <rect x="74" y="162" width="574" height="20" rx="3" fill="#141720"/>
  <rect x="74" y="162" width="0.0" height="20" rx="3" fill="#5F5E5A"/>
  <text x="81.0" y="176" font-family="sans-serif" font-size="11" font-weight="500" fill="#5F5E5A" text-anchor="start">1.0×</text>
  <text x="68" y="204" font-family="sans-serif" font-size="11" font-weight="400" fill="#8a8fa0" text-anchor="end">V2</text>
  <rect x="74" y="190" width="574" height="20" rx="3" fill="#141720"/>
  <rect x="74" y="190" width="53.5" height="20" rx="3" fill="#378ADD"/>
  <text x="134.5" y="204" font-family="sans-serif" font-size="11" font-weight="500" fill="#378ADD" text-anchor="start">1.4×</text>
  <text x="68" y="232" font-family="sans-serif" font-size="11" font-weight="400" fill="#8a8fa0" text-anchor="end">V3</text>
  <rect x="74" y="218" width="574" height="20" rx="3" fill="#141720"/>
  <rect x="74" y="218" width="53.5" height="20" rx="3" fill="#1D9E75"/>
  <text x="134.5" y="232" font-family="sans-serif" font-size="11" font-weight="500" fill="#1D9E75" text-anchor="start">1.4×</text>
  <line x1="36" y1="274" x2="684" y2="274" stroke="#2a2d38" stroke-width="0.5"/>
  <text x="36" y="298" font-family="sans-serif" font-size="11" font-weight="500" fill="#8a8fa0" text-anchor="start">Time per event (ms)  —  lower is better</text>
  <text x="68" y="334" font-family="sans-serif" font-size="11" font-weight="400" fill="#8a8fa0" text-anchor="end">V1</text>
  <rect x="74" y="320" width="464" height="20" rx="3" fill="#141720"/>
  <rect x="74" y="320" width="464.0" height="20" rx="3" fill="#5F5E5A"/>
  <text x="548" y="334" font-family="sans-serif" font-size="11" font-weight="500" fill="#e2e0d8" text-anchor="start">42.25 ms</text>
  <text x="608" y="334" font-family="sans-serif" font-size="11" font-weight="400" fill="#5F5E5A" text-anchor="start">1.0×</text>
  <text x="68" y="362" font-family="sans-serif" font-size="11" font-weight="400" fill="#8a8fa0" text-anchor="end">V2</text>
  <rect x="74" y="348" width="464" height="20" rx="3" fill="#141720"/>
  <rect x="74" y="348" width="322.9" height="20" rx="3" fill="#378ADD"/>
  <text x="548" y="362" font-family="sans-serif" font-size="11" font-weight="500" fill="#e2e0d8" text-anchor="start">29.40 ms</text>
  <text x="608" y="362" font-family="sans-serif" font-size="11" font-weight="400" fill="#378ADD" text-anchor="start">1.4×</text>
  <text x="68" y="390" font-family="sans-serif" font-size="11" font-weight="400" fill="#8a8fa0" text-anchor="end">V3</text>
  <rect x="74" y="376" width="464" height="20" rx="3" fill="#141720"/>
  <rect x="74" y="376" width="321.2" height="20" rx="3" fill="#1D9E75"/>
  <text x="548" y="390" font-family="sans-serif" font-size="11" font-weight="500" fill="#e2e0d8" text-anchor="start">29.25 ms</text>
  <text x="608" y="390" font-family="sans-serif" font-size="11" font-weight="400" fill="#1D9E75" text-anchor="start">1.4×</text>
  <rect x="36" y="427" width="10" height="10" rx="2" fill="#5F5E5A"/>
  <text x="51" y="436" font-family="sans-serif" font-size="11" font-weight="400" fill="#8a8fa0" text-anchor="start">V1 baseline</text>
  <rect x="153" y="427" width="10" height="10" rx="2" fill="#378ADD"/>
  <text x="168" y="436" font-family="sans-serif" font-size="11" font-weight="400" fill="#8a8fa0" text-anchor="start">SoA layout (V2)</text>
  <rect x="298" y="427" width="10" height="10" rx="2" fill="#1D9E75"/>
  <text x="313" y="436" font-family="sans-serif" font-size="11" font-weight="400" fill="#8a8fa0" text-anchor="start">SoA + pre-alloc (V3)</text>
</svg>