<svg xmlns="http://www.w3.org/2000/svg" width="680" height="381" viewBox="0 0 680 381">
<rect width="680" height="381" fill="#0B0D12"/>
<defs>
<marker id="arr_gray" viewBox="0 0 680 381" refX="8" refY="5" markerWidth="5" markerHeight="5" orient="auto-start-reverse"><path d="M2 1L8 5L2 9" fill="none" stroke="#6a6b6e" stroke-width="1.8" stroke-linecap="round" stroke-linejoin="round"/></marker>
<marker id="arr_blue" viewBox="0 0 680 381" refX="8" refY="5" markerWidth="5" markerHeight="5" orient="auto-start-reverse"><path d="M2 1L8 5L2 9" fill="none" stroke="#1D9E75" stroke-width="1.8" stroke-linecap="round" stroke-linejoin="round"/></marker>
<marker id="arr_pur" viewBox="0 0 680 381" refX="8" refY="5" markerWidth="5" markerHeight="5" orient="auto-start-reverse"><path d="M2 1L8 5L2 9" fill="none" stroke="#7F77DD" stroke-width="1.8" stroke-linecap="round" stroke-linejoin="round"/></marker>
</defs>
<text x="178" y="26" font-family="sans-serif" font-size="12" font-weight="500" fill="#a0a5b8" text-anchor="middle">V1 · Intuitive O(N²)</text>
<text x="502" y="26" font-family="sans-serif" font-size="12" font-weight="500" fill="#a0a5b8" text-anchor="middle">V4 · Sort + window cut</text>
<rect x="28" y="38" width="300" height="260" rx="8" fill="none" stroke="#ffffff" stroke-width="1.5"/>
<line x1="167.7" y1="157.9" x2="54.3" y2="61.4" stroke="#F0997B" stroke-width="0.7" opacity="0.45"/>
<line x1="167.7" y1="157.9" x2="105.8" y2="107.3" stroke="#F0997B" stroke-width="0.7" opacity="0.45"/>
<line x1="167.7" y1="157.9" x2="141.9" y2="54.0" stroke="#F0997B" stroke-width="0.7" opacity="0.45"/>
<line x1="167.7" y1="157.9" x2="80.1" y2="180.9" stroke="#F0997B" stroke-width="0.7" opacity="0.45"/>
<line x1="167.7" y1="157.9" x2="198.6" y2="70.5" stroke="#F0997B" stroke-width="0.7" opacity="0.45"/>
<line x1="167.7" y1="157.9" x2="239.8" y2="144.1" stroke="#F0997B" stroke-width="0.7" opacity="0.45"/>
<line x1="167.7" y1="157.9" x2="265.6" y2="61.4" stroke="#F0997B" stroke-width="0.7" opacity="0.45"/>
<line x1="167.7" y1="157.9" x2="291.4" y2="208.5" stroke="#F0997B" stroke-width="0.7" opacity="0.45"/>
<line x1="167.7" y1="157.9" x2="152.2" y2="226.8" stroke="#F0997B" stroke-width="0.7" opacity="0.45"/>
<line x1="167.7" y1="157.9" x2="229.5" y2="263.6" stroke="#F0997B" stroke-width="0.7" opacity="0.45"/>
<line x1="167.7" y1="157.9" x2="74.9" y2="263.6" stroke="#F0997B" stroke-width="0.7" opacity="0.45"/>
<line x1="167.7" y1="157.9" x2="312.0" y2="125.7" stroke="#F0997B" stroke-width="0.7" opacity="0.45"/>
<line x1="167.7" y1="157.9" x2="44.0" y2="134.9" stroke="#F0997B" stroke-width="0.7" opacity="0.45"/>
<line x1="167.7" y1="157.9" x2="188.3" y2="199.3" stroke="#F0997B" stroke-width="0.7" opacity="0.45"/>
<line x1="167.7" y1="157.9" x2="126.5" y2="282.0" stroke="#F0997B" stroke-width="0.7" opacity="0.45"/>
<circle cx="54.3" cy="61.4" r="4" fill="#6a6b6e" opacity="0.7"/>
<circle cx="105.8" cy="107.3" r="4" fill="#6a6b6e" opacity="0.7"/>
<circle cx="141.9" cy="54.0" r="4" fill="#6a6b6e" opacity="0.7"/>
<circle cx="80.1" cy="180.9" r="4" fill="#6a6b6e" opacity="0.7"/>
<circle cx="198.6" cy="70.5" r="4" fill="#6a6b6e" opacity="0.7"/>
<circle cx="239.8" cy="144.1" r="4" fill="#6a6b6e" opacity="0.7"/>
<circle cx="265.6" cy="61.4" r="4" fill="#6a6b6e" opacity="0.7"/>
<circle cx="291.4" cy="208.5" r="4" fill="#6a6b6e" opacity="0.7"/>
<circle cx="152.2" cy="226.8" r="4" fill="#6a6b6e" opacity="0.7"/>
<circle cx="229.5" cy="263.6" r="4" fill="#6a6b6e" opacity="0.7"/>
<circle cx="74.9" cy="263.6" r="4" fill="#6a6b6e" opacity="0.7"/>
<circle cx="312.0" cy="125.7" r="4" fill="#6a6b6e" opacity="0.7"/>
<circle cx="44.0" cy="134.9" r="4" fill="#6a6b6e" opacity="0.7"/>
<circle cx="188.3" cy="199.3" r="4" fill="#6a6b6e" opacity="0.7"/>
<circle cx="126.5" cy="282.0" r="4" fill="#6a6b6e" opacity="0.7"/>
<circle cx="167.7" cy="157.9" r="6.5" fill="#EF9F27" stroke="#BA7517" stroke-width="1.2"/>
<text x="179.7" y="152.9" font-family="sans-serif" font-size="11" font-weight="500" fill="#BA7517" text-anchor="start">Q</text>
<text x="178" y="314" font-family="sans-serif" font-size="14" font-weight="400" fill="#e8e6de" text-anchor="middle">x</text>
<text x="12" y="168" font-family="sans-serif" font-size="14" font-weight="400" fill="#e8e6de" text-anchor="middle">y</text>
<text x="178" y="338" font-family="sans-serif" font-size="10" font-weight="400" fill="#e8e6de" text-anchor="middle">Q checks every point — N−1 distances per query.</text>
<rect x="352" y="38" width="300" height="260" rx="8" fill="none" stroke="#ffffff" stroke-width="1.5"/>
<line x1="446.7" y1="42" x2="446.7" y2="280" stroke="#2a6aaa" stroke-width="0.7" stroke-dasharray="4 3" opacity="0.55"/>
<line x1="518.4" y1="42" x2="518.4" y2="280" stroke="#2a6aaa" stroke-width="0.7" stroke-dasharray="4 3" opacity="0.55"/>
<line x1="482.6" y1="163.2" x2="454.7" y2="196.5" stroke="#2a6aaa" stroke-width="1.1" opacity="0.7"/>
<line x1="482.6" y1="163.2" x2="468.6" y2="77.8" stroke="#2a6aaa" stroke-width="1.1" opacity="0.7"/>
<line x1="482.6" y1="163.2" x2="496.5" y2="234.5" stroke="#2a6aaa" stroke-width="1.1" opacity="0.7"/>
<line x1="482.6" y1="163.2" x2="510.5" y2="120.5" stroke="#2a6aaa" stroke-width="1.1" opacity="0.7"/>
<line x1="358" y1="284" x2="646" y2="284" stroke="#2a2d38" stroke-width="0.8"/>
<circle cx="368.0" cy="225.0" r="4" fill="#6a6b6e" opacity="0.22"/>
<line x1="368.0" y1="281" x2="368.0" y2="287" stroke="#2a2d38" stroke-width="0.8"/>
<circle cx="381.0" cy="101.5" r="4" fill="#6a6b6e" opacity="0.22"/>
<line x1="381.0" y1="281" x2="381.0" y2="287" stroke="#2a2d38" stroke-width="0.8"/>
<circle cx="395.9" cy="177.5" r="4" fill="#6a6b6e" opacity="0.22"/>
<line x1="395.9" y1="281" x2="395.9" y2="287" stroke="#2a2d38" stroke-width="0.8"/>
<circle cx="410.8" cy="63.5" r="4" fill="#6a6b6e" opacity="0.22"/>
<line x1="410.8" y1="281" x2="410.8" y2="287" stroke="#2a2d38" stroke-width="0.8"/>
<circle cx="424.8" cy="263.0" r="4" fill="#6a6b6e" opacity="0.22"/>
<line x1="424.8" y1="281" x2="424.8" y2="287" stroke="#2a2d38" stroke-width="0.8"/>
<circle cx="439.7" cy="134.8" r="4" fill="#6a6b6e" opacity="0.22"/>
<line x1="439.7" y1="281" x2="439.7" y2="287" stroke="#2a2d38" stroke-width="0.8"/>
<circle cx="454.7" cy="196.5" r="4" fill="#2a6aaa" opacity="0.9"/>
<line x1="454.7" y1="281" x2="454.7" y2="287" stroke="#2a6aaa" stroke-width="0.8"/>
<circle cx="468.6" cy="77.8" r="4" fill="#2a6aaa" opacity="0.9"/>
<line x1="468.6" y1="281" x2="468.6" y2="287" stroke="#2a6aaa" stroke-width="0.8"/>
<circle cx="496.5" cy="234.5" r="4" fill="#2a6aaa" opacity="0.9"/>
<line x1="496.5" y1="281" x2="496.5" y2="287" stroke="#2a6aaa" stroke-width="0.8"/>
<circle cx="510.5" cy="120.5" r="4" fill="#2a6aaa" opacity="0.9"/>
<line x1="510.5" y1="281" x2="510.5" y2="287" stroke="#2a6aaa" stroke-width="0.8"/>
<circle cx="524.4" cy="282.0" r="4" fill="#6a6b6e" opacity="0.22"/>
<line x1="524.4" y1="281" x2="524.4" y2="287" stroke="#2a2d38" stroke-width="0.8"/>
<circle cx="538.4" cy="54.0" r="4" fill="#6a6b6e" opacity="0.22"/>
<line x1="538.4" y1="281" x2="538.4" y2="287" stroke="#2a2d38" stroke-width="0.8"/>
<circle cx="552.3" cy="196.5" r="4" fill="#6a6b6e" opacity="0.22"/>
<line x1="552.3" y1="281" x2="552.3" y2="287" stroke="#2a2d38" stroke-width="0.8"/>
<circle cx="566.3" cy="139.5" r="4" fill="#6a6b6e" opacity="0.22"/>
<line x1="566.3" y1="281" x2="566.3" y2="287" stroke="#2a2d38" stroke-width="0.8"/>
<circle cx="580.2" cy="263.0" r="4" fill="#6a6b6e" opacity="0.22"/>
<line x1="580.2" y1="281" x2="580.2" y2="287" stroke="#2a2d38" stroke-width="0.8"/>
<circle cx="594.2" cy="87.2" r="4" fill="#6a6b6e" opacity="0.22"/>
<line x1="594.2" y1="281" x2="594.2" y2="287" stroke="#2a2d38" stroke-width="0.8"/>
<circle cx="608.1" cy="215.5" r="4" fill="#6a6b6e" opacity="0.22"/>
<line x1="608.1" y1="281" x2="608.1" y2="287" stroke="#2a2d38" stroke-width="0.8"/>
<circle cx="622.1" cy="58.8" r="4" fill="#6a6b6e" opacity="0.22"/>
<line x1="622.1" y1="281" x2="622.1" y2="287" stroke="#2a2d38" stroke-width="0.8"/>
<circle cx="636.0" cy="282.0" r="4" fill="#6a6b6e" opacity="0.22"/>
<line x1="636.0" y1="281" x2="636.0" y2="287" stroke="#2a2d38" stroke-width="0.8"/>
<circle cx="482.6" cy="163.2" r="6.5" fill="#EF9F27" stroke="#BA7517" stroke-width="1.2"/>
<text x="494.6" y="158.2" font-family="sans-serif" font-size="11" font-weight="500" fill="#BA7517" text-anchor="start">Q</text>
<rect x="445.7" y="282" width="73.69999999999999" height="8" rx="2" fill="#2a6aaa" opacity="0.18"/>
<text x="482.54999999999995" y="276" font-family="sans-serif" font-size="10" font-weight="400" fill="#2a6aaa" text-anchor="middle">window</text>
<text x="502" y="297" font-family="sans-serif" font-size="10" font-weight="400" fill="#4a4e5a" text-anchor="middle">sorted by x →</text>
<text x="502" y="314" font-family="sans-serif" font-size="14" font-weight="400" fill="#e8e6de" text-anchor="middle">x</text>
<text x="336" y="168" font-family="sans-serif" font-size="14" font-weight="400" fill="#e8e6de" text-anchor="middle">y</text>
<text x="502" y="338" font-family="sans-serif" font-size="10" font-weight="400" fill="#e8e6de" text-anchor="middle">Q scans outward in x; stops when |Δx| ≥ best dist.</text>
<circle cx="21" cy="355" r="5" fill="#EF9F27" stroke="#BA7517" stroke-width="0.8"/>
<text x="30" y="359" font-family="sans-serif" font-size="10" font-weight="400" fill="#a0a5b8" text-anchor="start">Query point Q</text>
<circle cx="120.5" cy="355" r="4" fill="#2a6aaa"/>
<text x="129.5" y="359" font-family="sans-serif" font-size="10" font-weight="400" fill="#a0a5b8" text-anchor="start">Checked (in window)</text>
<circle cx="253.0" cy="355" r="4" fill="#6a6b6e"/>
<text x="262.0" y="359" font-family="sans-serif" font-size="10" font-weight="400" fill="#a0a5b8" text-anchor="start">Skipped (out of window)</text>
<line x1="402.5" y1="355" x2="420.5" y2="355" stroke="#F0997B" stroke-width="1.2" opacity="0.7"/>
<text x="424.5" y="359" font-family="sans-serif" font-size="10" font-weight="400" fill="#a0a5b8" text-anchor="start">Distance computed</text>
<line x1="524.0" y1="355" x2="542.0" y2="355" stroke="#2a6aaa" stroke-width="0.7" stroke-dasharray="4 3" opacity="0.7"/>
<text x="546.0" y="359" font-family="sans-serif" font-size="10" font-weight="400" fill="#a0a5b8" text-anchor="start">Window edge</text>
</svg>