<svg xmlns="http://www.w3.org/2000/svg" width="700" height="700" viewBox="0 0 700 700">
  <rect width="700" height="700" fill="#0B0D12"/>
  <line x1="60" y1="640" x2="640" y2="640" stroke="#4a4e5a" stroke-width="1"/>
  <line x1="60" y1="60" x2="60" y2="640" stroke="#4a4e5a" stroke-width="1"/>
  <line x1="60.0" y1="640" x2="60.0" y2="645" stroke="#4a4e5a" stroke-width="0.8"/>
  <text x="60.0" y="660" text-anchor="middle" font-family="monospace" font-size="11" fill="#8a8fa0">0.0</text>
  <line x1="55" y1="640.0" x2="60" y2="640.0" stroke="#4a4e5a" stroke-width="0.8"/>
  <text x="50" y="644.0" text-anchor="end" font-family="monospace" font-size="11" fill="#8a8fa0">0.0</text>
  <line x1="176.0" y1="640" x2="176.0" y2="645" stroke="#4a4e5a" stroke-width="0.8"/>
  <text x="176.0" y="660" text-anchor="middle" font-family="monospace" font-size="11" fill="#8a8fa0">0.2</text>
  <line x1="55" y1="524.0" x2="60" y2="524.0" stroke="#4a4e5a" stroke-width="0.8"/>
  <text x="50" y="528.0" text-anchor="end" font-family="monospace" font-size="11" fill="#8a8fa0">0.2</text>
  <line x1="292.0" y1="640" x2="292.0" y2="645" stroke="#4a4e5a" stroke-width="0.8"/>
  <text x="292.0" y="660" text-anchor="middle" font-family="monospace" font-size="11" fill="#8a8fa0">0.4</text>
  <line x1="55" y1="408.0" x2="60" y2="408.0" stroke="#4a4e5a" stroke-width="0.8"/>
  <text x="50" y="412.0" text-anchor="end" font-family="monospace" font-size="11" fill="#8a8fa0">0.4</text>
  <line x1="408.0" y1="640" x2="408.0" y2="645" stroke="#4a4e5a" stroke-width="0.8"/>
  <text x="408.0" y="660" text-anchor="middle" font-family="monospace" font-size="11" fill="#8a8fa0">0.6</text>
  <line x1="55" y1="292.0" x2="60" y2="292.0" stroke="#4a4e5a" stroke-width="0.8"/>
  <text x="50" y="296.0" text-anchor="end" font-family="monospace" font-size="11" fill="#8a8fa0">0.6</text>
  <line x1="524.0" y1="640" x2="524.0" y2="645" stroke="#4a4e5a" stroke-width="0.8"/>
  <text x="524.0" y="660" text-anchor="middle" font-family="monospace" font-size="11" fill="#8a8fa0">0.8</text>
  <line x1="55" y1="176.0" x2="60" y2="176.0" stroke="#4a4e5a" stroke-width="0.8"/>
  <text x="50" y="180.0" text-anchor="end" font-family="monospace" font-size="11" fill="#8a8fa0">0.8</text>
  <line x1="640.0" y1="640" x2="640.0" y2="645" stroke="#4a4e5a" stroke-width="0.8"/>
  <text x="640.0" y="660" text-anchor="middle" font-family="monospace" font-size="11" fill="#8a8fa0">1.0</text>
  <line x1="55" y1="60.0" x2="60" y2="60.0" stroke="#4a4e5a" stroke-width="0.8"/>
  <text x="50" y="64.0" text-anchor="end" font-family="monospace" font-size="11" fill="#8a8fa0">1.0</text>
  <text x="350" y="692" text-anchor="middle" font-family="sans-serif" font-size="13" fill="#8a8fa0">x</text>
  <text x="14" y="350" text-anchor="middle" font-family="sans-serif" font-size="13" fill="#8a8fa0" transform="rotate(-90,14,350)">y</text>
  <line x1="440.15" y1="410.53" x2="430.87" y2="625.49" stroke="#2a5a9a" stroke-width="0.6" opacity="0.6"/>
  <line x1="440.15" y1="410.53" x2="219.52" y2="510.54" stroke="#2a5a9a" stroke-width="0.6" opacity="0.6"/>
  <line x1="440.15" y1="410.53" x2="487.15" y2="247.51" stroke="#2a5a9a" stroke-width="0.6" opacity="0.6"/>
  <line x1="440.15" y1="410.53" x2="577.46" y2="589.58" stroke="#2a5a9a" stroke-width="0.6" opacity="0.6"/>
  <line x1="440.15" y1="410.53" x2="304.71" y2="622.72" stroke="#2a5a9a" stroke-width="0.6" opacity="0.6"/>
  <line x1="440.15" y1="410.53" x2="186.81" y2="346.89" stroke="#2a5a9a" stroke-width="0.6" opacity="0.6"/>
  <line x1="440.15" y1="410.53" x2="75.39" y2="524.67" stroke="#2a5a9a" stroke-width="0.6" opacity="0.6"/>
  <line x1="440.15" y1="410.53" x2="436.93" y2="323.93" stroke="#2a5a9a" stroke-width="0.6" opacity="0.6"/>
  <line x1="440.15" y1="410.53" x2="187.86" y2="298.23" stroke="#2a5a9a" stroke-width="0.6" opacity="0.6"/>
  <line x1="440.15" y1="410.53" x2="529.47" y2="636.23" stroke="#2a5a9a" stroke-width="0.6" opacity="0.6"/>
  <line x1="440.15" y1="410.53" x2="527.38" y2="235.08" stroke="#2a5a9a" stroke-width="0.6" opacity="0.6"/>
  <line x1="440.15" y1="410.53" x2="257.35" y2="549.82" stroke="#2a5a9a" stroke-width="0.6" opacity="0.6"/>
  <line x1="440.15" y1="410.53" x2="615.18" y2="444.78" stroke="#2a5a9a" stroke-width="0.6" opacity="0.6"/>
  <line x1="440.15" y1="410.53" x2="113.79" y2="583.90" stroke="#2a5a9a" stroke-width="0.6" opacity="0.6"/>
  <line x1="440.15" y1="410.53" x2="551.55" y2="289.84" stroke="#2a5a9a" stroke-width="0.6" opacity="0.6"/>
  <line x1="440.15" y1="410.53" x2="528.13" y2="216.76" stroke="#2a5a9a" stroke-width="0.6" opacity="0.6"/>
  <line x1="440.15" y1="410.53" x2="371.01" y2="75.59" stroke="#2a5a9a" stroke-width="0.6" opacity="0.6"/>
  <line x1="440.15" y1="410.53" x2="279.55" y2="319.82" stroke="#2a5a9a" stroke-width="0.6" opacity="0.6"/>
  <line x1="440.15" y1="410.53" x2="541.05" y2="281.26" stroke="#2a5a9a" stroke-width="0.6" opacity="0.6"/>
  <line x1="440.15" y1="410.53" x2="559.79" y2="305.14" stroke="#2a5a9a" stroke-width="0.6" opacity="0.6"/>
  <line x1="440.15" y1="410.53" x2="468.65" y2="613.42" stroke="#2a5a9a" stroke-width="0.6" opacity="0.6"/>
  <line x1="440.15" y1="410.53" x2="192.18" y2="472.15" stroke="#2a5a9a" stroke-width="0.6" opacity="0.6"/>
  <line x1="440.15" y1="410.53" x2="106.28" y2="504.98" stroke="#2a5a9a" stroke-width="0.6" opacity="0.6"/>
  <line x1="440.15" y1="410.53" x2="118.58" y2="478.78" stroke="#2a5a9a" stroke-width="0.6" opacity="0.6"/>
  <line x1="440.15" y1="410.53" x2="428.70" y2="428.40" stroke="#2a5a9a" stroke-width="0.6" opacity="0.6"/>
  <line x1="440.15" y1="410.53" x2="274.70" y2="518.49" stroke="#2a5a9a" stroke-width="0.6" opacity="0.6"/>
  <line x1="440.15" y1="410.53" x2="214.85" y2="96.74" stroke="#2a5a9a" stroke-width="0.6" opacity="0.6"/>
  <line x1="440.15" y1="410.53" x2="435.86" y2="286.70" stroke="#2a5a9a" stroke-width="0.6" opacity="0.6"/>
  <line x1="440.15" y1="410.53" x2="159.26" y2="217.11" stroke="#2a5a9a" stroke-width="0.6" opacity="0.6"/>
  <line x1="440.15" y1="410.53" x2="154.77" y2="419.92" stroke="#2a5a9a" stroke-width="0.6" opacity="0.6"/>
  <line x1="440.15" y1="410.53" x2="633.92" y2="268.80" stroke="#2a5a9a" stroke-width="0.6" opacity="0.6"/>
  <line x1="440.15" y1="410.53" x2="383.03" y2="242.92" stroke="#2a5a9a" stroke-width="0.6" opacity="0.6"/>
  <line x1="440.15" y1="410.53" x2="548.85" y2="189.92" stroke="#2a5a9a" stroke-width="0.6" opacity="0.6"/>
  <line x1="440.15" y1="410.53" x2="192.85" y2="621.38" stroke="#2a5a9a" stroke-width="0.6" opacity="0.6"/>
  <line x1="440.15" y1="410.53" x2="242.96" y2="484.71" stroke="#2a5a9a" stroke-width="0.6" opacity="0.6"/>
  <line x1="440.15" y1="410.53" x2="182.37" y2="93.11" stroke="#2a5a9a" stroke-width="0.6" opacity="0.6"/>
  <line x1="440.15" y1="410.53" x2="568.29" y2="457.49" stroke="#2a5a9a" stroke-width="0.6" opacity="0.6"/>
  <line x1="440.15" y1="410.53" x2="590.44" y2="373.87" stroke="#2a5a9a" stroke-width="0.6" opacity="0.6"/>
  <line x1="440.15" y1="410.53" x2="213.63" y2="496.96" stroke="#2a5a9a" stroke-width="0.6" opacity="0.6"/>
  <line x1="440.15" y1="410.53" x2="385.59" y2="487.61" stroke="#2a5a9a" stroke-width="0.6" opacity="0.6"/>
  <line x1="440.15" y1="410.53" x2="399.06" y2="119.26" stroke="#2a5a9a" stroke-width="0.6" opacity="0.6"/>
  <line x1="440.15" y1="410.53" x2="291.65" y2="512.79" stroke="#2a5a9a" stroke-width="0.6" opacity="0.6"/>
  <line x1="440.15" y1="410.53" x2="638.57" y2="344.47" stroke="#2a5a9a" stroke-width="0.6" opacity="0.6"/>
  <line x1="440.15" y1="410.53" x2="112.73" y2="612.67" stroke="#2a5a9a" stroke-width="0.6" opacity="0.6"/>
  <line x1="440.15" y1="410.53" x2="123.60" y2="276.08" stroke="#2a5a9a" stroke-width="0.6" opacity="0.6"/>
  <line x1="440.15" y1="410.53" x2="519.41" y2="395.15" stroke="#2a5a9a" stroke-width="0.6" opacity="0.6"/>
  <line x1="440.15" y1="410.53" x2="96.85" y2="418.66" stroke="#2a5a9a" stroke-width="0.6" opacity="0.6"/>
  <line x1="440.15" y1="410.53" x2="637.75" y2="333.11" stroke="#2a5a9a" stroke-width="0.6" opacity="0.6"/>
  <line x1="440.15" y1="410.53" x2="623.23" y2="140.75" stroke="#2a5a9a" stroke-width="0.6" opacity="0.6"/>
  <line x1="440.15" y1="410.53" x2="66.66" y2="221.98" stroke="#2a5a9a" stroke-width="0.6" opacity="0.6"/>
  <line x1="440.15" y1="410.53" x2="455.39" y2="328.56" stroke="#2a5a9a" stroke-width="0.6" opacity="0.6"/>
  <line x1="440.15" y1="410.53" x2="214.76" y2="268.24" stroke="#2a5a9a" stroke-width="0.6" opacity="0.6"/>
  <line x1="440.15" y1="410.53" x2="124.70" y2="387.84" stroke="#2a5a9a" stroke-width="0.6" opacity="0.6"/>
  <line x1="440.15" y1="410.53" x2="323.16" y2="86.79" stroke="#2a5a9a" stroke-width="0.6" opacity="0.6"/>
  <line x1="440.15" y1="410.53" x2="567.99" y2="487.23" stroke="#2a5a9a" stroke-width="0.6" opacity="0.6"/>
  <line x1="440.15" y1="410.53" x2="350.34" y2="536.38" stroke="#2a5a9a" stroke-width="0.6" opacity="0.6"/>
  <line x1="440.15" y1="410.53" x2="589.32" y2="135.10" stroke="#2a5a9a" stroke-width="0.6" opacity="0.6"/>
  <line x1="440.15" y1="410.53" x2="233.10" y2="269.41" stroke="#2a5a9a" stroke-width="0.6" opacity="0.6"/>
  <line x1="440.15" y1="410.53" x2="413.20" y2="551.35" stroke="#2a5a9a" stroke-width="0.6" opacity="0.6"/>
  <line x1="440.15" y1="410.53" x2="502.26" y2="327.16" stroke="#2a5a9a" stroke-width="0.6" opacity="0.6"/>
  <line x1="440.15" y1="410.53" x2="511.60" y2="332.39" stroke="#2a5a9a" stroke-width="0.6" opacity="0.6"/>
  <line x1="440.15" y1="410.53" x2="60.33" y2="451.99" stroke="#2a5a9a" stroke-width="0.6" opacity="0.6"/>
  <line x1="440.15" y1="410.53" x2="71.30" y2="101.12" stroke="#2a5a9a" stroke-width="0.6" opacity="0.6"/>
  <line x1="440.15" y1="410.53" x2="569.66" y2="157.63" stroke="#2a5a9a" stroke-width="0.6" opacity="0.6"/>
  <line x1="440.15" y1="410.53" x2="238.36" y2="606.40" stroke="#2a5a9a" stroke-width="0.6" opacity="0.6"/>
  <line x1="440.15" y1="410.53" x2="569.25" y2="90.77" stroke="#2a5a9a" stroke-width="0.6" opacity="0.6"/>
  <line x1="440.15" y1="410.53" x2="109.68" y2="358.13" stroke="#2a5a9a" stroke-width="0.6" opacity="0.6"/>
  <line x1="440.15" y1="410.53" x2="100.14" y2="198.85" stroke="#2a5a9a" stroke-width="0.6" opacity="0.6"/>
  <line x1="440.15" y1="410.53" x2="504.18" y2="565.53" stroke="#2a5a9a" stroke-width="0.6" opacity="0.6"/>
  <line x1="440.15" y1="410.53" x2="335.66" y2="321.11" stroke="#2a5a9a" stroke-width="0.6" opacity="0.6"/>
  <line x1="440.15" y1="410.53" x2="213.73" y2="133.99" stroke="#2a5a9a" stroke-width="0.6" opacity="0.6"/>
  <line x1="440.15" y1="410.53" x2="305.42" y2="517.16" stroke="#2a5a9a" stroke-width="0.6" opacity="0.6"/>
  <line x1="440.15" y1="410.53" x2="372.79" y2="216.64" stroke="#2a5a9a" stroke-width="0.6" opacity="0.6"/>
  <line x1="440.15" y1="410.53" x2="176.67" y2="459.20" stroke="#2a5a9a" stroke-width="0.6" opacity="0.6"/>
  <line x1="440.15" y1="410.53" x2="637.19" y2="263.07" stroke="#2a5a9a" stroke-width="0.6" opacity="0.6"/>
  <line x1="440.15" y1="410.53" x2="314.10" y2="339.81" stroke="#2a5a9a" stroke-width="0.6" opacity="0.6"/>
  <line x1="440.15" y1="410.53" x2="130.18" y2="509.68" stroke="#2a5a9a" stroke-width="0.6" opacity="0.6"/>
  <line x1="440.15" y1="410.53" x2="256.09" y2="298.78" stroke="#2a5a9a" stroke-width="0.6" opacity="0.6"/>
  <line x1="440.15" y1="410.53" x2="193.47" y2="512.27" stroke="#2a5a9a" stroke-width="0.6" opacity="0.6"/>
  <line x1="440.15" y1="410.53" x2="101.18" y2="273.96" stroke="#2a5a9a" stroke-width="0.6" opacity="0.6"/>
  <line x1="440.15" y1="410.53" x2="192.79" y2="114.86" stroke="#2a5a9a" stroke-width="0.6" opacity="0.6"/>
  <line x1="440.15" y1="410.53" x2="558.59" y2="598.90" stroke="#2a5a9a" stroke-width="0.6" opacity="0.6"/>
  <line x1="440.15" y1="410.53" x2="198.04" y2="251.99" stroke="#2a5a9a" stroke-width="0.6" opacity="0.6"/>
  <line x1="440.15" y1="410.53" x2="184.26" y2="563.26" stroke="#2a5a9a" stroke-width="0.6" opacity="0.6"/>
  <line x1="440.15" y1="410.53" x2="602.60" y2="308.80" stroke="#2a5a9a" stroke-width="0.6" opacity="0.6"/>
  <line x1="440.15" y1="410.53" x2="334.15" y2="184.92" stroke="#2a5a9a" stroke-width="0.6" opacity="0.6"/>
  <line x1="440.15" y1="410.53" x2="528.35" y2="529.56" stroke="#2a5a9a" stroke-width="0.6" opacity="0.6"/>
  <line x1="440.15" y1="410.53" x2="116.22" y2="389.99" stroke="#2a5a9a" stroke-width="0.6" opacity="0.6"/>
  <line x1="440.15" y1="410.53" x2="305.68" y2="369.13" stroke="#2a5a9a" stroke-width="0.6" opacity="0.6"/>
  <line x1="440.15" y1="410.53" x2="482.86" y2="249.45" stroke="#2a5a9a" stroke-width="0.6" opacity="0.6"/>
  <line x1="440.15" y1="410.53" x2="630.82" y2="582.92" stroke="#2a5a9a" stroke-width="0.6" opacity="0.6"/>
  <line x1="440.15" y1="410.53" x2="293.52" y2="443.20" stroke="#2a5a9a" stroke-width="0.6" opacity="0.6"/>
  <line x1="440.15" y1="410.53" x2="559.77" y2="495.78" stroke="#2a5a9a" stroke-width="0.6" opacity="0.6"/>
  <line x1="440.15" y1="410.53" x2="170.32" y2="379.80" stroke="#2a5a9a" stroke-width="0.6" opacity="0.6"/>
  <line x1="440.15" y1="410.53" x2="304.69" y2="478.44" stroke="#2a5a9a" stroke-width="0.6" opacity="0.6"/>
  <line x1="440.15" y1="410.53" x2="204.89" y2="104.51" stroke="#2a5a9a" stroke-width="0.6" opacity="0.6"/>
  <line x1="440.15" y1="410.53" x2="317.02" y2="140.42" stroke="#2a5a9a" stroke-width="0.6" opacity="0.6"/>
  <line x1="440.15" y1="410.53" x2="379.19" y2="610.66" stroke="#2a5a9a" stroke-width="0.6" opacity="0.6"/>
  <line x1="440.15" y1="410.53" x2="639.58" y2="155.10" stroke="#2a5a9a" stroke-width="0.6" opacity="0.6"/>
  <circle cx="430.87" cy="625.49" r="3" fill="#8a8fa0" opacity="0.85"/>
  <circle cx="219.52" cy="510.54" r="3" fill="#8a8fa0" opacity="0.85"/>
  <circle cx="487.15" cy="247.51" r="3" fill="#8a8fa0" opacity="0.85"/>
  <circle cx="577.46" cy="589.58" r="3" fill="#8a8fa0" opacity="0.85"/>
  <circle cx="304.71" cy="622.72" r="3" fill="#8a8fa0" opacity="0.85"/>
  <circle cx="186.81" cy="346.89" r="3" fill="#8a8fa0" opacity="0.85"/>
  <circle cx="75.39" cy="524.67" r="3" fill="#8a8fa0" opacity="0.85"/>
  <circle cx="436.93" cy="323.93" r="3" fill="#8a8fa0" opacity="0.85"/>
  <circle cx="187.86" cy="298.23" r="3" fill="#8a8fa0" opacity="0.85"/>
  <circle cx="529.47" cy="636.23" r="3" fill="#8a8fa0" opacity="0.85"/>
  <circle cx="527.38" cy="235.08" r="3" fill="#8a8fa0" opacity="0.85"/>
  <circle cx="257.35" cy="549.82" r="3" fill="#8a8fa0" opacity="0.85"/>
  <circle cx="615.18" cy="444.78" r="3" fill="#8a8fa0" opacity="0.85"/>
  <circle cx="113.79" cy="583.90" r="3" fill="#8a8fa0" opacity="0.85"/>
  <circle cx="551.55" cy="289.84" r="3" fill="#8a8fa0" opacity="0.85"/>
  <circle cx="528.13" cy="216.76" r="3" fill="#8a8fa0" opacity="0.85"/>
  <circle cx="371.01" cy="75.59" r="3" fill="#8a8fa0" opacity="0.85"/>
  <circle cx="279.55" cy="319.82" r="3" fill="#8a8fa0" opacity="0.85"/>
  <circle cx="541.05" cy="281.26" r="3" fill="#8a8fa0" opacity="0.85"/>
  <circle cx="559.79" cy="305.14" r="3" fill="#8a8fa0" opacity="0.85"/>
  <circle cx="468.65" cy="613.42" r="3" fill="#8a8fa0" opacity="0.85"/>
  <circle cx="192.18" cy="472.15" r="3" fill="#8a8fa0" opacity="0.85"/>
  <circle cx="106.28" cy="504.98" r="3" fill="#8a8fa0" opacity="0.85"/>
  <circle cx="118.58" cy="478.78" r="3" fill="#8a8fa0" opacity="0.85"/>
  <circle cx="428.70" cy="428.40" r="3" fill="#8a8fa0" opacity="0.85"/>
  <circle cx="274.70" cy="518.49" r="3" fill="#8a8fa0" opacity="0.85"/>
  <circle cx="214.85" cy="96.74" r="3" fill="#8a8fa0" opacity="0.85"/>
  <circle cx="435.86" cy="286.70" r="3" fill="#8a8fa0" opacity="0.85"/>
  <circle cx="159.26" cy="217.11" r="3" fill="#8a8fa0" opacity="0.85"/>
  <circle cx="154.77" cy="419.92" r="3" fill="#8a8fa0" opacity="0.85"/>
  <circle cx="633.92" cy="268.80" r="3" fill="#8a8fa0" opacity="0.85"/>
  <circle cx="383.03" cy="242.92" r="3" fill="#8a8fa0" opacity="0.85"/>
  <circle cx="548.85" cy="189.92" r="3" fill="#8a8fa0" opacity="0.85"/>
  <circle cx="192.85" cy="621.38" r="3" fill="#8a8fa0" opacity="0.85"/>
  <circle cx="242.96" cy="484.71" r="3" fill="#8a8fa0" opacity="0.85"/>
  <circle cx="182.37" cy="93.11" r="3" fill="#8a8fa0" opacity="0.85"/>
  <circle cx="568.29" cy="457.49" r="3" fill="#8a8fa0" opacity="0.85"/>
  <circle cx="590.44" cy="373.87" r="3" fill="#8a8fa0" opacity="0.85"/>
  <circle cx="213.63" cy="496.96" r="3" fill="#8a8fa0" opacity="0.85"/>
  <circle cx="385.59" cy="487.61" r="3" fill="#8a8fa0" opacity="0.85"/>
  <circle cx="399.06" cy="119.26" r="3" fill="#8a8fa0" opacity="0.85"/>
  <circle cx="291.65" cy="512.79" r="3" fill="#8a8fa0" opacity="0.85"/>
  <circle cx="638.57" cy="344.47" r="3" fill="#8a8fa0" opacity="0.85"/>
  <circle cx="112.73" cy="612.67" r="3" fill="#8a8fa0" opacity="0.85"/>
  <circle cx="123.60" cy="276.08" r="3" fill="#8a8fa0" opacity="0.85"/>
  <circle cx="519.41" cy="395.15" r="3" fill="#8a8fa0" opacity="0.85"/>
  <circle cx="96.85" cy="418.66" r="3" fill="#8a8fa0" opacity="0.85"/>
  <circle cx="637.75" cy="333.11" r="3" fill="#8a8fa0" opacity="0.85"/>
  <circle cx="623.23" cy="140.75" r="3" fill="#8a8fa0" opacity="0.85"/>
  <circle cx="66.66" cy="221.98" r="3" fill="#8a8fa0" opacity="0.85"/>
  <circle cx="455.39" cy="328.56" r="3" fill="#8a8fa0" opacity="0.85"/>
  <circle cx="214.76" cy="268.24" r="3" fill="#8a8fa0" opacity="0.85"/>
  <circle cx="124.70" cy="387.84" r="3" fill="#8a8fa0" opacity="0.85"/>
  <circle cx="323.16" cy="86.79" r="3" fill="#8a8fa0" opacity="0.85"/>
  <circle cx="567.99" cy="487.23" r="3" fill="#8a8fa0" opacity="0.85"/>
  <circle cx="350.34" cy="536.38" r="3" fill="#8a8fa0" opacity="0.85"/>
  <circle cx="589.32" cy="135.10" r="3" fill="#8a8fa0" opacity="0.85"/>
  <circle cx="233.10" cy="269.41" r="3" fill="#8a8fa0" opacity="0.85"/>
  <circle cx="413.20" cy="551.35" r="3" fill="#8a8fa0" opacity="0.85"/>
  <circle cx="502.26" cy="327.16" r="3" fill="#8a8fa0" opacity="0.85"/>
  <circle cx="511.60" cy="332.39" r="3" fill="#8a8fa0" opacity="0.85"/>
  <circle cx="60.33" cy="451.99" r="3" fill="#8a8fa0" opacity="0.85"/>
  <circle cx="71.30" cy="101.12" r="3" fill="#8a8fa0" opacity="0.85"/>
  <circle cx="569.66" cy="157.63" r="3" fill="#8a8fa0" opacity="0.85"/>
  <circle cx="238.36" cy="606.40" r="3" fill="#8a8fa0" opacity="0.85"/>
  <circle cx="569.25" cy="90.77" r="3" fill="#8a8fa0" opacity="0.85"/>
  <circle cx="109.68" cy="358.13" r="3" fill="#8a8fa0" opacity="0.85"/>
  <circle cx="100.14" cy="198.85" r="3" fill="#8a8fa0" opacity="0.85"/>
  <circle cx="504.18" cy="565.53" r="3" fill="#8a8fa0" opacity="0.85"/>
  <circle cx="335.66" cy="321.11" r="3" fill="#8a8fa0" opacity="0.85"/>
  <circle cx="213.73" cy="133.99" r="3" fill="#8a8fa0" opacity="0.85"/>
  <circle cx="305.42" cy="517.16" r="3" fill="#8a8fa0" opacity="0.85"/>
  <circle cx="372.79" cy="216.64" r="3" fill="#8a8fa0" opacity="0.85"/>
  <circle cx="176.67" cy="459.20" r="3" fill="#8a8fa0" opacity="0.85"/>
  <circle cx="637.19" cy="263.07" r="3" fill="#8a8fa0" opacity="0.85"/>
  <circle cx="314.10" cy="339.81" r="3" fill="#8a8fa0" opacity="0.85"/>
  <circle cx="130.18" cy="509.68" r="3" fill="#8a8fa0" opacity="0.85"/>
  <circle cx="256.09" cy="298.78" r="3" fill="#8a8fa0" opacity="0.85"/>
  <circle cx="193.47" cy="512.27" r="3" fill="#8a8fa0" opacity="0.85"/>
  <circle cx="101.18" cy="273.96" r="3" fill="#8a8fa0" opacity="0.85"/>
  <circle cx="192.79" cy="114.86" r="3" fill="#8a8fa0" opacity="0.85"/>
  <circle cx="558.59" cy="598.90" r="3" fill="#8a8fa0" opacity="0.85"/>
  <circle cx="198.04" cy="251.99" r="3" fill="#8a8fa0" opacity="0.85"/>
  <circle cx="184.26" cy="563.26" r="3" fill="#8a8fa0" opacity="0.85"/>
  <circle cx="602.60" cy="308.80" r="3" fill="#8a8fa0" opacity="0.85"/>
  <circle cx="334.15" cy="184.92" r="3" fill="#8a8fa0" opacity="0.85"/>
  <circle cx="528.35" cy="529.56" r="3" fill="#8a8fa0" opacity="0.85"/>
  <circle cx="116.22" cy="389.99" r="3" fill="#8a8fa0" opacity="0.85"/>
  <circle cx="305.68" cy="369.13" r="3" fill="#8a8fa0" opacity="0.85"/>
  <circle cx="482.86" cy="249.45" r="3" fill="#8a8fa0" opacity="0.85"/>
  <circle cx="630.82" cy="582.92" r="3" fill="#8a8fa0" opacity="0.85"/>
  <circle cx="293.52" cy="443.20" r="3" fill="#8a8fa0" opacity="0.85"/>
  <circle cx="559.77" cy="495.78" r="3" fill="#8a8fa0" opacity="0.85"/>
  <circle cx="170.32" cy="379.80" r="3" fill="#8a8fa0" opacity="0.85"/>
  <circle cx="304.69" cy="478.44" r="3" fill="#8a8fa0" opacity="0.85"/>
  <circle cx="204.89" cy="104.51" r="3" fill="#8a8fa0" opacity="0.85"/>
  <circle cx="317.02" cy="140.42" r="3" fill="#8a8fa0" opacity="0.85"/>
  <circle cx="379.19" cy="610.66" r="3" fill="#8a8fa0" opacity="0.85"/>
  <circle cx="639.58" cy="155.10" r="3" fill="#8a8fa0" opacity="0.85"/>
  <circle cx="440.15" cy="410.53" r="5.5" fill="#EF9F27" stroke="#BA7517" stroke-width="1"/>
  <text x="449.2" y="404.5" font-family="sans-serif" font-size="12" fill="#EF9F27">Q</text>
</svg>